<?xml version="1.0" encoding="UTF-8"?>
<svg viewBox="0 0 177.34335 151.12807" xmlns="http://www.w3.org/2000/svg" xmlns:xlink="http://www.w3.org/1999/xlink">
 <defs>
  <linearGradient id="c">
   <stop stop-color="#fff" offset="0"/>
   <stop stop-color="#fff" stop-opacity="0" offset="1"/>
  </linearGradient>
  <linearGradient id="e" x1="442.45" x2="449.52" y1="555.37" y2="690.73" gradientUnits="userSpaceOnUse">
   <stop stop-color="#96beff" offset="0"/>
   <stop stop-color="#09719f" offset="1"/>
  </linearGradient>
  <linearGradient id="a" x1="161.23" x2="218.19" y1="558.61" y2="625.07" gradientUnits="userSpaceOnUse">
   <stop stop-color="#008080" stop-opacity=".65441" offset="0"/>
   <stop stop-color="#003434" stop-opacity=".71323" offset="1"/>
  </linearGradient>
  <linearGradient id="d" x1="-139.4" x2="-111.85" y1="490.72" y2="632.14" gradientUnits="userSpaceOnUse" xlink:href="#c"/>
  <linearGradient id="b" x1="140.41" x2="151.98" y1="489.06" y2="588.28" gradientUnits="userSpaceOnUse" xlink:href="#c"/>
 </defs>
 <g transform="matrix(.46448 0 0 .46448 -120.12 -243.89)" fill-rule="evenodd">
  <path d="m417.2 525.08c-32.479 0-61.353 15.489-79.625 39.5-3.9897-0.74567-8.1075-1.125-12.312-1.125-36.802 0-66.656 29.854-66.656 66.656s29.854 66.687 66.656 66.688c6.7515 0 13.263-1.0061 19.406-2.875 18.225 19.182 44.003 31.156 72.531 31.156 15.962 0 31.046-3.7461 44.438-10.406 13.391 6.6601 28.475 10.406 44.438 10.406 32.873 0 62.049-15.896 80.281-40.406 29.895-0.2526 54.062-24.609 54.062-54.562 0-27.609-20.531-50.427-47.156-54.031-17.151-30.44-49.781-51-87.188-51-15.965 0-31.045 3.7442-44.438 10.406-13.393-6.662-28.473-10.406-44.438-10.406z" fill="url(#e)"/>
  <path transform="translate(531.34 16.162)" d="m-116.16 516.81c-28.489 0-54.197 13.851-70.125 34.781-2.7691 3.6441-7.1882 5.3701-11.688 4.5312-3.2638-0.61-6.6458-0.9375-10.125-0.9375-29.078 0-54.719 25.64-54.719 54.719 0 3.8289 0.28827 5.1345 0.1875 3.5312 0.87184 13.728 10.88 25.148 24.375 27.812 32.071 6.3439 75.548 3.4797 127.22-9.3438 41.696-10.348 86.57-26.173 131.12-44 9.9847-4.0037 17.099-13 18.693-23.639s-2.5705-21.325-10.943-28.08c-14.971-12.054-34.361-19.375-55.125-19.375-13.951 0-27.418 3.3329-39.125 9.1562-3.3716 1.6771-7.2534 1.6771-10.625 0-11.707-5.8234-25.174-9.1562-39.125-9.1562z" fill="url(#d)"/>
 </g>
 <g transform="matrix(.20769 0 0 .20769 -2.6822 -3.2146)" fill-rule="evenodd">
  <path d="m241.89 431.12c-53.595 77.536-107.89 102.01-119.07 121.37-11.193 19.386-5.2046 50.653 17.009 63.478s53.781-0.21451 63.477-17.009c9.6223-16.666 1.4932-80.776 38.581-167.84z" fill="#008080"/>
  <path d="m201.47 489.06c-1.1986 0.03661-2.3383 0.52825-3.1875 1.375-13.665 13.705-28.179 26.544-43.375 38.438l-0.15625 0.125c-10.413 8.8512-20.995 15.626-27.906 25.656-0.10172 0.14055-0.19562 0.28661-0.28125 0.4375-4.374 8.0981-5.8345 17.919-3.8438 26.75 0.07675 0.34516 0.19206 0.6806 0.34375 1 0.85637 1.7986 2.0955 3.1017 3.5938 4.0625s3.4547 1.9666 6.25 0.9375c0.18136-0.06206 0.35877-0.13511 0.53125-0.21875l0.0625-0.03125v-0.03125c11.213-4.1455 19.516-14.011 28.219-24l0.09375-0.125c16.907-20.913 31.143-43.707 43.969-67.406 0.80904-1.4882 0.75822-3.2959-0.13316-4.7363s-2.4865-2.2925-4.1793-2.2324z" fill="url(#b)"/>
  <path d="m196.27 558.65c-5.7557 1.4292-6.4936 9.1221-10.258 12.967-6.4681 10.582-15.088 19.69-24.055 27.876-2.8612 4.7136 3.3489 9.6549 7.75 6.8438 13.615-3.9368 28.766-13.223 30.229-28.705 0.11687-5.5512 3.5348-11.709 0.95814-16.952-1.0057-1.4577-2.8625-2.2462-4.625-2.0312z" fill="url(#a)"/>
 </g>
 <g transform="matrix(.20769 0 0 .20769 27.346 13.676)" fill-rule="evenodd">
  <path d="m241.89 431.12c-53.595 77.536-107.89 102.01-119.07 121.37-11.193 19.386-5.2046 50.653 17.009 63.478s53.781-0.21451 63.477-17.009c9.6223-16.666 1.4932-80.776 38.581-167.84z" fill="#008080"/>
  <path d="m201.47 489.06c-1.1986 0.03661-2.3383 0.52825-3.1875 1.375-13.665 13.705-28.179 26.544-43.375 38.438l-0.15625 0.125c-10.413 8.8512-20.995 15.626-27.906 25.656-0.10172 0.14055-0.19562 0.28661-0.28125 0.4375-4.374 8.0981-5.8345 17.919-3.8438 26.75 0.07675 0.34516 0.19206 0.6806 0.34375 1 0.85637 1.7986 2.0955 3.1017 3.5938 4.0625s3.4547 1.9666 6.25 0.9375c0.18136-0.06206 0.35877-0.13511 0.53125-0.21875l0.0625-0.03125v-0.03125c11.213-4.1455 19.516-14.011 28.219-24l0.09375-0.125c16.907-20.913 31.143-43.707 43.969-67.406 0.80904-1.4882 0.75822-3.2959-0.13316-4.7363s-2.4865-2.2925-4.1793-2.2324z" fill="url(#b)"/>
  <path d="m196.27 558.65c-5.7557 1.4292-6.4936 9.1221-10.258 12.967-6.4681 10.582-15.088 19.69-24.055 27.876-2.8612 4.7136 3.3489 9.6549 7.75 6.8438 13.615-3.9368 28.766-13.223 30.229-28.705 0.11687-5.5512 3.5348-11.709 0.95814-16.952-1.0057-1.4577-2.8625-2.2462-4.625-2.0312z" fill="url(#a)"/>
 </g>
 <g transform="matrix(.20769 0 0 .20769 67.227 21.183)" fill-rule="evenodd">
  <path d="m241.89 431.12c-53.595 77.536-107.89 102.01-119.07 121.37-11.193 19.386-5.2046 50.653 17.009 63.478s53.781-0.21451 63.477-17.009c9.6223-16.666 1.4932-80.776 38.581-167.84z" fill="#008080"/>
  <path d="m201.47 489.06c-1.1986 0.03661-2.3383 0.52825-3.1875 1.375-13.665 13.705-28.179 26.544-43.375 38.438l-0.15625 0.125c-10.413 8.8512-20.995 15.626-27.906 25.656-0.10172 0.14055-0.19562 0.28661-0.28125 0.4375-4.374 8.0981-5.8345 17.919-3.8438 26.75 0.07675 0.34516 0.19206 0.6806 0.34375 1 0.85637 1.7986 2.0955 3.1017 3.5938 4.0625s3.4547 1.9666 6.25 0.9375c0.18136-0.06206 0.35877-0.13511 0.53125-0.21875l0.0625-0.03125v-0.03125c11.213-4.1455 19.516-14.011 28.219-24l0.09375-0.125c16.907-20.913 31.143-43.707 43.969-67.406 0.80904-1.4882 0.75822-3.2959-0.13316-4.7363s-2.4865-2.2925-4.1793-2.2324z" fill="url(#b)"/>
  <path d="m196.27 558.65c-5.7557 1.4292-6.4936 9.1221-10.258 12.967-6.4681 10.582-15.088 19.69-24.055 27.876-2.8612 4.7136 3.3489 9.6549 7.75 6.8438 13.615-3.9368 28.766-13.223 30.229-28.705 0.11687-5.5512 3.5348-11.709 0.95814-16.952-1.0057-1.4577-2.8625-2.2462-4.625-2.0312z" fill="url(#a)"/>
 </g>
 <g transform="matrix(.11387 0 0 .11387 16.046 80.401)" fill-rule="evenodd">
  <path d="m241.89 431.12c-53.595 77.536-107.89 102.01-119.07 121.37-11.193 19.386-5.2046 50.653 17.009 63.478s53.781-0.21451 63.477-17.009c9.6223-16.666 1.4932-80.776 38.581-167.84z" fill="#008080"/>
  <path d="m201.47 489.06c-1.1986 0.03661-2.3383 0.52825-3.1875 1.375-13.665 13.705-28.179 26.544-43.375 38.438l-0.15625 0.125c-10.413 8.8512-20.995 15.626-27.906 25.656-0.10172 0.14055-0.19562 0.28661-0.28125 0.4375-4.374 8.0981-5.8345 17.919-3.8438 26.75 0.07675 0.34516 0.19206 0.6806 0.34375 1 0.85637 1.7986 2.0955 3.1017 3.5938 4.0625s3.4547 1.9666 6.25 0.9375c0.18136-0.06206 0.35877-0.13511 0.53125-0.21875l0.0625-0.03125v-0.03125c11.213-4.1455 19.516-14.011 28.219-24l0.09375-0.125c16.907-20.913 31.143-43.707 43.969-67.406 0.80904-1.4882 0.75822-3.2959-0.13316-4.7363s-2.4865-2.2925-4.1793-2.2324z" fill="url(#b)"/>
  <path d="m196.27 558.65c-5.7557 1.4292-6.4936 9.1221-10.258 12.967-6.4681 10.582-15.088 19.69-24.055 27.876-2.8612 4.7136 3.3489 9.6549 7.75 6.8438 13.615-3.9368 28.766-13.223 30.229-28.705 0.11687-5.5512 3.5348-11.709 0.95814-16.952-1.0057-1.4577-2.8625-2.2462-4.625-2.0312z" fill="url(#a)"/>
 </g>
 <g transform="matrix(.16249 0 0 .16249 65.961 21.973)" fill-rule="evenodd">
  <path d="m241.89 431.12c-53.595 77.536-107.89 102.01-119.07 121.37-11.193 19.386-5.2046 50.653 17.009 63.478s53.781-0.21451 63.477-17.009c9.6223-16.666 1.4932-80.776 38.581-167.84z" fill="#008080"/>
  <path d="m201.47 489.06c-1.1986 0.03661-2.3383 0.52825-3.1875 1.375-13.665 13.705-28.179 26.544-43.375 38.438l-0.15625 0.125c-10.413 8.8512-20.995 15.626-27.906 25.656-0.10172 0.14055-0.19562 0.28661-0.28125 0.4375-4.374 8.0981-5.8345 17.919-3.8438 26.75 0.07675 0.34516 0.19206 0.6806 0.34375 1 0.85637 1.7986 2.0955 3.1017 3.5938 4.0625s3.4547 1.9666 6.25 0.9375c0.18136-0.06206 0.35877-0.13511 0.53125-0.21875l0.0625-0.03125v-0.03125c11.213-4.1455 19.516-14.011 28.219-24l0.09375-0.125c16.907-20.913 31.143-43.707 43.969-67.406 0.80904-1.4882 0.75822-3.2959-0.13316-4.7363s-2.4865-2.2925-4.1793-2.2324z" fill="url(#b)"/>
  <path d="m196.27 558.65c-5.7557 1.4292-6.4936 9.1221-10.258 12.967-6.4681 10.582-15.088 19.69-24.055 27.876-2.8612 4.7136 3.3489 9.6549 7.75 6.8438 13.615-3.9368 28.766-13.223 30.229-28.705 0.11687-5.5512 3.5348-11.709 0.95814-16.952-1.0057-1.4577-2.8625-2.2462-4.625-2.0312z" fill="url(#a)"/>
 </g>
</svg>
