<?xml version="1.0" encoding="UTF-8"?>
<svg viewBox="0 0 221.3629 204.67679" xmlns="http://www.w3.org/2000/svg" xmlns:xlink="http://www.w3.org/1999/xlink">
 <defs>
  <filter id="h">
   <feGaussianBlur stdDeviation="2.57143"/>
  </filter>
  <linearGradient id="a">
   <stop stop-color="#fff" offset="0"/>
   <stop stop-color="#fff" stop-opacity="0" offset="1"/>
  </linearGradient>
  <linearGradient id="g" x2="0" y1="75.271" y2="298.79" gradientUnits="userSpaceOnUse">
   <stop stop-color="#fff" stop-opacity=".375" offset="0"/>
   <stop stop-color="#fff" stop-opacity="0" offset="1"/>
  </linearGradient>
  <linearGradient id="e" x1="442.45" x2="449.52" y1="555.37" y2="690.73" gradientUnits="userSpaceOnUse">
   <stop stop-color="#96beff" offset="0"/>
   <stop stop-color="#09719f" offset="1"/>
  </linearGradient>
  <linearGradient id="f" x1="369.72" x2="389.92" y1="452.33" y2="549.44" gradientUnits="userSpaceOnUse" xlink:href="#a"/>
  <linearGradient id="d" x1="-139.4" x2="-111.85" y1="490.72" y2="632.14" gradientUnits="userSpaceOnUse" xlink:href="#a"/>
  <radialGradient id="c" cx="377.14" cy="404.36" r="216.8" gradientTransform="matrix(1.2653e-7 -1.0008 1.0527 1.3251e-7 -59.965 792.66)" gradientUnits="userSpaceOnUse">
   <stop stop-color="#fffdbc" offset="0"/>
   <stop stop-color="#fcff00" offset="1"/>
  </radialGradient>
  <radialGradient id="b" cx="-468.78" cy="440.96" r="128.57" gradientTransform="matrix(-.020617 1.022 -.9998 -.020169 -37.572 928.95)" gradientUnits="userSpaceOnUse">
   <stop stop-color="#ff0" offset="0"/>
   <stop stop-color="#ffd400" offset=".5"/>
   <stop stop-color="#ffa900" offset="1"/>
  </radialGradient>
 </defs>
 <g transform="matrix(.46448 0 0 .46448 -22.612 -6.9335)" fill-rule="evenodd">
  <path transform="translate(-96.703 -179.96)" d="m527.12 565.41c-0.59104 0.63515-78.264-36.445-78.967-35.938s9.9941 85.91 9.205 86.27-58.359-63.621-59.203-63.422-23.643 83.195-24.51 83.226-29.57-81.111-30.426-81.25-53.681 67.814-54.494 67.511 3.721-86.253 2.9827-86.709-75.546 42.11-76.181 41.519 36.445-78.264 35.938-78.967-85.91 9.9941-86.27 9.205 63.621-58.359 63.422-59.203-83.195-23.643-83.226-24.51 81.111-29.57 81.25-30.426-67.814-53.681-67.511-54.494 86.253 3.721 86.709 2.9827-42.11-75.546-41.519-76.181 78.264 36.445 78.967 35.938-9.9941-85.91-9.205-86.27 58.359 63.621 59.203 63.422 23.643-83.195 24.51-83.226 29.57 81.111 30.426 81.25 53.681-67.814 54.494-67.511-3.721 86.253-2.9827 86.709 75.546-42.11 76.181-41.519-36.445 78.264-35.938 78.967 85.91-9.9941 86.27-9.205-63.621 58.359-63.422 59.203 83.195 23.643 83.226 24.51-81.111 29.57-81.25 30.426 67.814 53.681 67.511 54.494-86.253-3.721-86.709-2.9827 42.11 75.546 41.519 76.181z" fill="#fb0"/>
  <path transform="translate(-96.703 -179.96)" d="m515.48 554.59c-0.48957 0.52611-66.752-25.534-67.335-25.113s3.2542 71.52 2.6006 71.819-51.9-49.135-52.599-48.97-24.363 67.321-25.081 67.347-29.146-65.256-29.855-65.371-48.271 52.873-48.944 52.622-1.9548-71.442-2.5663-71.82-64.83 30.376-65.356 29.886 25.534-66.752 25.113-67.335-71.52 3.2542-71.819 2.6006 49.135-51.9 48.97-52.599-67.321-24.363-67.347-25.081 65.256-29.146 65.371-29.855-52.873-48.271-52.622-48.944 71.442-1.9548 71.82-2.5663-30.376-64.83-29.886-65.356 66.752 25.534 67.335 25.113-3.2542-71.52-2.6006-71.819 51.9 49.135 52.599 48.97 24.363-67.321 25.081-67.347 29.146 65.256 29.855 65.371 48.271-52.873 48.944-52.622 1.9548 71.442 2.5663 71.82 64.83-30.376 65.356-29.886-25.534 66.752-25.113 67.335 71.52-3.2542 71.819-2.6006-49.135 51.9-48.97 52.599 67.321 24.363 67.347 25.081-65.256 29.146-65.371 29.855 52.873 48.271 52.622 48.944-71.442 1.9548-71.82 2.5663 30.376 64.83 29.886 65.356z" fill="url(#c)"/>
  <path d="m264.65193,75.63857c-7.11491-.33224-13.62065,3.99649-16.0625,10.6875-.393,1.07389-.97082,2.61196-1.34375,3.625-1.16446,3.16318-2.15212,5.79623-2.90625,7.75-.4261,1.10393-.68587,1.77979-.9375,2.375-.11559.27343-.06123.17706-.4375.9375-.53243,1.07606.01151.06996-.4375.78125-.57554.91174.03328.08377-.6875.90625-1.02102,1.16508-.95639,1.14278-1.21875,1.46875-.42882.17016-1.03632.4185-2.4375.75-1.39006.32886-2.00954.39683-2.46875.4375-.37969-.17399-.32366-.18827-1.78125-.78125-1.02073-.41526-.1289.0443-1.03125-.5-.78497-.4735.07329.09751-.71875-.5-.59785-.451-.43785-.33697-.8125-.65625-.52992-.4516-1.06325-.92185-1.90625-1.6875-1.55896-1.4159-3.63897-3.32449-6.09375-5.625-.52654-.49345-1.72315-1.69389-2.8125-2.71875-4.82542-4.54015-11.91994-5.70538-17.94407-2.94718s-9.77753,8.89024-9.49343,15.50968c.04711,1.12061.11021,2.789.15625,3.9375 .13788,3.43974.26391,6.29338.3125,8.28125 .02481,1.01508.03725,1.66127.03125,2.5-.00567.79195.00742.48318-.03125,1.0625-.05367.80408.03937-.05007-.125.90625-.18706,1.08828.07478.04306-.28125,1.09375-.49635,1.46476-.44302,1.40509-.5625,1.8125-.32696.31857-.79362.77718-1.96875,1.625-1.15292.83183-1.72099,1.13276-2.125,1.34375-.43541-.01506-.35553-.04073-1.90625-.03125-1.17583.00719-.2884.06898-1.15625-.0625-.81589-.12361.30322.08703-.875-.21875-.71675-.18601-.5344-.13035-1-.28125-.67734-.21953-1.34502-.46237-2.40625-.84375-1.94304-.6983-4.57618-1.67806-7.75-2.875-.90794-.34242-2.46567-.92335-3.65625-1.375-6.18746-2.34533-13.17886-.71474-17.69037,4.12587s-5.6466,11.92934-2.87213,17.93663c.52002,1.12113 1.23758,2.62403 1.65625,3.53125 1.42615,3.09031 2.57838,5.66104 3.40625,7.53125 .48488,1.09536.79542,1.76201 1.03125,2.34375 .14408.35543.08583.20487.34375.96875 .40878,1.21063.10651.10104.28125.875 .2731,1.20965.08627.02823.15625,1.09375 .10049,1.53003.11188,1.46135.15625,1.875-.18158.42324-.45253,1.0401-1.21875,2.28125-.75682,1.22588-1.14125,1.74072-1.4375,2.09375-.38967.14516-.34394.08117-1.78125.6875-.96985.40913.12711.04911-1.0625.34375-.96119.23806-.13531.08383-.875.1875-.6993.09801-.49973.04876-1.0625.09375-.79113.06325-1.48793.10594-2.53125.15625-2.01016.09693-4.85852.20102-8.28125.3125-1.0809.03521-2.73832.08923-3.90625.125-6.62341.1979-12.4669,4.38817-14.77928,10.59797s-.63277,13.20149 4.24803,17.68328l2.875,2.625c2.52565,2.33204 4.61952,4.25024 6.0625,5.625 .66857.63696 1.19473,1.15382 1.84375,1.8125 .50464.51216.30425.27598.71875.75 .86953.99439.06299.0245.53125.6875 .48863.69184.06902-.06325.59375,1 .70486,1.42826.70511,1.35333.90625,1.71875-.00718.45762-.05355,1.09255-.28125,2.5-.22692,1.40269-.39275,1.99643-.53125,2.4375-.30065.2777-.28238.23729-1.40625,1.375-.7697.77918.07194.04404-.84375.71875-.6597.48609.33798-.13957-.75.5-.54956.32305-.32849.18917-.9375.5-.7435.37948-1.3681.66349-2.28125,1.09375-1.90034.89541-4.46263,2.08104-7.53125,3.46875l-3.53125,1.59375c-6.02118,2.72765-9.79706,8.82351-9.55722,15.42935s4.44784,12.41183 10.65097,14.69565l3.65625,1.34375c3.14129,1.15785 5.72957,2.13754 7.71875,2.90625 1.11477.43079 1.79173.69065 2.375.9375 .52456.22199.34699.12957.96875.4375 1.09024.53993.07611-.00792.78125.4375 .71665.4527-.02588-.10233.875.6875 1.16568,1.022 1.14248.95605 1.46875,1.21875 .17012.4287.41861,1.03676.75,2.4375 .20792.87884.21474,1.07757.34375,2.53125 .40248,4.56539 2.70952,8.75003 6.3552,11.5274s8.29267,3.89051 12.80105,3.06635c73.58604,1.11874 163.07039-27.81942 230.75-70.625 4.66927-1.77985 8.26332-5.60429 9.75-10.375-.18536.59369-.44317,1.48383 1-2.0625 .41692-1.0245-.04154-.13386.5-1.03125 .47617-.78906-.09179.06532.5-.71875 .29602-.3922.04808-.0626.6875-.8125 .62089-.72818 1.04741-1.20504 1.65625-1.875 1.42413-1.56711 3.32997-3.64627 5.625-6.09375 .652-.69531 1.81683-1.91883 2.6875-2.84375 4.54015-4.82542 5.70538-11.91994 2.94718-17.94407s-8.89024-9.77753-15.50968-9.49343c-1.42735.05937-3.09682.15663-3.875.1875-3.35062.13291-6.15992.23029-8.28125.28125-1.01969.0245-1.70888.03748-2.53125.03125-.80497-.00609-.43912.00853-1.03125-.03125-.82616-.05549.07325.03839-.875-.125-1.10714-.19078-.08278.07235-1.125-.28125-1.47665-.50099-1.40918-.44456-1.8125-.5625-.31842-.32675-.77856-.7956-1.625-1.96875-.84326-1.16876-1.13646-1.72553-1.34375-2.125 .01494-.43567.0412-.35582.03125-1.90625-.0075-1.16815-.07099-.273.0625-1.15625 .11712-.77498-.13295.51358.21875-.84375 .18356-.70844.12545-.51864.28125-1 .24655-.76177.49352-1.4617.84375-2.4375 .69168-1.92709 1.67567-4.5659 2.875-7.75l1.375-3.625c2.35639-6.19507.72427-13.20017-4.12761-17.71578s-11.95598-5.64125-17.96614-2.84672c-1.10892.51489-2.60928,1.23033-3.53125,1.65625-3.04292,1.40573-5.5897,2.54588-7.53125,3.40625-1.0849.48075-1.75025.79039-2.34375,1.03125-.3405.13819-.19699.08284-.96875.34375-1.39299.47092-.11137.11563-.84375.28125-1.09773.24824-.04102.08474-1.125.15625-1.53061.10098-1.4615.11178-1.875.15625-.42337-.18167-1.03887-.45173-2.28125-1.21875-1.22084-.75371-1.71204-1.14326-2.0625-1.4375-.14632-.39409-.1072-.32994-.71875-1.78125-.41238-.97866-.05455.07611-.34375-1.09375-.23971-.96965-.08738-.15835-.1875-.875-.09906-.70908-.05055-.48773-.09375-1.03125-.06616-.83228-.10772-1.51532-.15625-2.53125-.09696-2.02984-.2029-4.86918-.3125-8.28125-.03525-1.0976-.09026-2.75545-.125-3.90625-.1979-6.62341-4.38817-12.4669-10.59797-14.77928s-13.20149-.63277-17.68328,4.24803c-.89666.97485-1.99636,2.19675-2.59375,2.84375-2.33204,2.52565-4.25024,4.61952-5.625,6.0625-.63696.66857-1.15382,1.19473-1.8125,1.84375-.51216.50464-.27598.30425-.75.71875-.99439.86953-.0245.06299-.6875.53125-.69184.48863.06325.06902-1,.59375-1.42826.70486-1.35333.70511-1.71875.90625-.45762-.00718-1.09255-.05355-2.5-.28125-1.40225-.22685-1.99655-.39277-2.4375-.53125-.27802-.30091-.23632-.2819-1.375-1.40625-.77484-.76509-.03747.0803-.71875-.84375-.48215-.65395.14798.35141-.5-.75-.31907-.54235-.18202-.31508-.5-.9375-.44261-.86638-.74476-1.44383-1.125-2.25-.86169-1.82691-2.02708-4.44695-3.4375-7.5625l-1.59375-3.53125c-2.51076-5.58765-7.944-9.29433-14.0625-9.59375z" fill="url(#g)"/>
  <path transform="matrix(.84444 0 0 .84444 667.11 -139.5)" d="m-342.86 443.79a128.57 128.57 0 1 1 -257.14 0 128.57 128.57 0 1 1 257.14 0z" fill="url(#b)" filter="url(#h)"/>
  <path transform="translate(-111.12 -303.05)" d="m372.06 441.56c-39.284 0-73.454 27.635-82.188 64.656-2.2211 9.4093-0.39989 19.319 5.0217 27.323s13.948 13.373 23.51 14.802c8.4134 1.2499 17.929 1.4187 30.75 0.5625 23.024-1.5376 48.513-7.691 75.812-16.188 10.161-3.1641 18.298-10.833 22.058-20.789s2.7243-21.089-2.8081-30.18c-14.715-24.161-42.053-40.188-72.156-40.188z" fill="url(#f)"/>
  <g transform="translate(-115.16 -292.94)">
   <path d="m417.2 525.08c-32.479 0-61.353 15.489-79.625 39.5-3.9897-0.74567-8.1075-1.125-12.312-1.125-36.802 0-66.656 29.854-66.656 66.656s29.854 66.687 66.656 66.688c6.7515 0 13.263-1.0061 19.406-2.875 18.225 19.182 44.003 31.156 72.531 31.156 15.962 0 31.046-3.7461 44.438-10.406 13.391 6.6601 28.475 10.406 44.438 10.406 32.873 0 62.049-15.896 80.281-40.406 29.895-0.2526 54.062-24.609 54.062-54.562 0-27.609-20.531-50.427-47.156-54.031-17.151-30.44-49.781-51-87.188-51-15.965 0-31.045 3.7442-44.438 10.406-13.393-6.662-28.473-10.406-44.438-10.406z" fill="url(#e)"/>
   <path transform="translate(531.34 16.162)" d="m-116.16 516.81c-28.489 0-54.197 13.851-70.125 34.781-2.7691 3.6441-7.1882 5.3701-11.688 4.5312-3.2638-0.61-6.6458-0.9375-10.125-0.9375-29.078 0-54.719 25.64-54.719 54.719 0 3.8289 0.28827 5.1345 0.1875 3.5312 0.87184 13.728 10.88 25.148 24.375 27.812 32.071 6.3439 75.548 3.4797 127.22-9.3438 41.696-10.348 86.57-26.173 131.12-44 9.9847-4.0037 17.099-13 18.693-23.639s-2.5705-21.325-10.943-28.08c-14.971-12.054-34.361-19.375-55.125-19.375-13.951 0-27.418 3.3329-39.125 9.1562-3.3716 1.6771-7.2534 1.6771-10.625 0-11.707-5.8234-25.174-9.1562-39.125-9.1562z" fill="url(#d)"/>
  </g>
 </g>
</svg>
